<mxfile host="app.diagrams.net" modified="2022-05-16T03:11:24.067Z" agent="5.0 (X11; Linux x86_64) AppleWebKit/537.36 (KHTML, like Gecko) Chrome/101.0.4951.64 Safari/537.36" etag="T8BFp1YI8-JFqIM7K11M" version="18.0.5" type="github">
  <diagram id="dJntC7baoFiYApWMhoOv" name="Page-1">
    <mxGraphModel dx="1422" dy="1915" grid="1" gridSize="10" guides="1" tooltips="1" connect="1" arrows="1" fold="1" page="1" pageScale="1" pageWidth="827" pageHeight="1169" math="0" shadow="0">
      <root>
        <mxCell id="0" />
        <mxCell id="1" parent="0" />
        <mxCell id="axCD_BhFRmvyrdvlrib9-1" value="Web系统" style="rounded=0;whiteSpace=wrap;html=1;" vertex="1" parent="1">
          <mxGeometry x="150" y="-540" width="120" height="40" as="geometry" />
        </mxCell>
        <mxCell id="axCD_BhFRmvyrdvlrib9-3" value="关键词提取" style="rounded=0;whiteSpace=wrap;html=1;" vertex="1" parent="1">
          <mxGeometry x="60" y="-430" width="120" height="60" as="geometry" />
        </mxCell>
        <mxCell id="axCD_BhFRmvyrdvlrib9-4" value="" style="edgeStyle=segmentEdgeStyle;endArrow=classic;html=1;rounded=0;exitX=0.5;exitY=1;exitDx=0;exitDy=0;exitPerimeter=0;" edge="1" parent="1" source="axCD_BhFRmvyrdvlrib9-1">
          <mxGeometry width="50" height="50" relative="1" as="geometry">
            <mxPoint x="210" y="-350" as="sourcePoint" />
            <mxPoint x="120" y="-430" as="targetPoint" />
            <Array as="points">
              <mxPoint x="210" y="-460" />
              <mxPoint x="120" y="-460" />
            </Array>
          </mxGeometry>
        </mxCell>
        <mxCell id="axCD_BhFRmvyrdvlrib9-5" value="可视化展示" style="rounded=0;whiteSpace=wrap;html=1;" vertex="1" parent="1">
          <mxGeometry x="250" y="-430" width="120" height="60" as="geometry" />
        </mxCell>
        <mxCell id="axCD_BhFRmvyrdvlrib9-7" value="" style="edgeStyle=elbowEdgeStyle;elbow=vertical;endArrow=classic;html=1;rounded=0;entryX=0.5;entryY=0;entryDx=0;entryDy=0;" edge="1" parent="1" target="axCD_BhFRmvyrdvlrib9-5">
          <mxGeometry width="50" height="50" relative="1" as="geometry">
            <mxPoint x="210" y="-480" as="sourcePoint" />
            <mxPoint x="310" y="-270" as="targetPoint" />
            <Array as="points">
              <mxPoint x="240" y="-460" />
              <mxPoint x="260" y="-430" />
              <mxPoint x="210" y="-430" />
              <mxPoint x="220" y="-290" />
            </Array>
          </mxGeometry>
        </mxCell>
        <mxCell id="axCD_BhFRmvyrdvlrib9-9" value="" style="endArrow=classic;html=1;rounded=0;exitX=0.5;exitY=1;exitDx=0;exitDy=0;" edge="1" parent="1" source="axCD_BhFRmvyrdvlrib9-3">
          <mxGeometry width="50" height="50" relative="1" as="geometry">
            <mxPoint x="130" y="-250" as="sourcePoint" />
            <mxPoint x="120" y="-320" as="targetPoint" />
          </mxGeometry>
        </mxCell>
        <mxCell id="axCD_BhFRmvyrdvlrib9-10" value="" style="shape=curlyBracket;whiteSpace=wrap;html=1;rounded=1;size=0;direction=south;" vertex="1" parent="1">
          <mxGeometry x="30" y="-320" width="160" height="20" as="geometry" />
        </mxCell>
        <mxCell id="axCD_BhFRmvyrdvlrib9-13" value="用户输入文本" style="rounded=0;whiteSpace=wrap;html=1;" vertex="1" parent="1">
          <mxGeometry y="-300" width="90" height="60" as="geometry" />
        </mxCell>
        <mxCell id="axCD_BhFRmvyrdvlrib9-15" value="用户上传文件" style="rounded=0;whiteSpace=wrap;html=1;" vertex="1" parent="1">
          <mxGeometry x="150" y="-300" width="90" height="60" as="geometry" />
        </mxCell>
        <mxCell id="axCD_BhFRmvyrdvlrib9-17" value="" style="edgeStyle=elbowEdgeStyle;elbow=vertical;endArrow=classic;html=1;rounded=0;exitX=0.5;exitY=1;exitDx=0;exitDy=0;" edge="1" parent="1" source="axCD_BhFRmvyrdvlrib9-13" target="axCD_BhFRmvyrdvlrib9-19">
          <mxGeometry width="50" height="50" relative="1" as="geometry">
            <mxPoint x="40" y="-230" as="sourcePoint" />
            <mxPoint x="80" y="-150" as="targetPoint" />
            <Array as="points">
              <mxPoint x="20" y="-150" />
              <mxPoint x="120" y="-200" />
            </Array>
          </mxGeometry>
        </mxCell>
        <mxCell id="axCD_BhFRmvyrdvlrib9-18" value="" style="edgeStyle=elbowEdgeStyle;elbow=vertical;endArrow=classic;html=1;rounded=0;exitX=0.5;exitY=1;exitDx=0;exitDy=0;" edge="1" parent="1" source="axCD_BhFRmvyrdvlrib9-15">
          <mxGeometry width="50" height="50" relative="1" as="geometry">
            <mxPoint x="100" y="-250" as="sourcePoint" />
            <mxPoint x="130" y="-160" as="targetPoint" />
            <Array as="points">
              <mxPoint x="110" y="-200" />
            </Array>
          </mxGeometry>
        </mxCell>
        <mxCell id="axCD_BhFRmvyrdvlrib9-19" value="文本预处理" style="rounded=0;whiteSpace=wrap;html=1;" vertex="1" parent="1">
          <mxGeometry x="70" y="-160" width="120" height="50" as="geometry" />
        </mxCell>
        <mxCell id="axCD_BhFRmvyrdvlrib9-20" value="" style="endArrow=classic;html=1;rounded=0;exitX=1;exitY=0.5;exitDx=0;exitDy=0;" edge="1" parent="1" source="axCD_BhFRmvyrdvlrib9-19">
          <mxGeometry width="50" height="50" relative="1" as="geometry">
            <mxPoint x="130" y="-110" as="sourcePoint" />
            <mxPoint x="250" y="-135" as="targetPoint" />
          </mxGeometry>
        </mxCell>
        <mxCell id="axCD_BhFRmvyrdvlrib9-21" value="关键词提取" style="rounded=0;whiteSpace=wrap;html=1;" vertex="1" parent="1">
          <mxGeometry x="250" y="-165" width="120" height="60" as="geometry" />
        </mxCell>
        <mxCell id="axCD_BhFRmvyrdvlrib9-22" value="" style="edgeStyle=segmentEdgeStyle;endArrow=classic;html=1;rounded=0;entryX=0.558;entryY=1.033;entryDx=0;entryDy=0;entryPerimeter=0;exitX=0.5;exitY=0;exitDx=0;exitDy=0;" edge="1" parent="1" source="axCD_BhFRmvyrdvlrib9-21" target="axCD_BhFRmvyrdvlrib9-5">
          <mxGeometry width="50" height="50" relative="1" as="geometry">
            <mxPoint x="300" y="-170" as="sourcePoint" />
            <mxPoint x="350" y="-220" as="targetPoint" />
          </mxGeometry>
        </mxCell>
        <mxCell id="axCD_BhFRmvyrdvlrib9-23" value="" style="endArrow=classic;html=1;rounded=0;exitX=1;exitY=0.5;exitDx=0;exitDy=0;" edge="1" parent="1" source="axCD_BhFRmvyrdvlrib9-5" target="axCD_BhFRmvyrdvlrib9-24">
          <mxGeometry width="50" height="50" relative="1" as="geometry">
            <mxPoint x="400" y="-370" as="sourcePoint" />
            <mxPoint x="440" y="-400" as="targetPoint" />
          </mxGeometry>
        </mxCell>
        <mxCell id="axCD_BhFRmvyrdvlrib9-24" value="生成词云图" style="rounded=0;whiteSpace=wrap;html=1;" vertex="1" parent="1">
          <mxGeometry x="430" y="-430" width="120" height="60" as="geometry" />
        </mxCell>
        <mxCell id="axCD_BhFRmvyrdvlrib9-25" value="" style="endArrow=classic;html=1;rounded=0;exitX=0.558;exitY=1;exitDx=0;exitDy=0;exitPerimeter=0;entryX=0.558;entryY=0.017;entryDx=0;entryDy=0;entryPerimeter=0;" edge="1" parent="1" source="axCD_BhFRmvyrdvlrib9-24" target="axCD_BhFRmvyrdvlrib9-26">
          <mxGeometry width="50" height="50" relative="1" as="geometry">
            <mxPoint x="540" y="-250" as="sourcePoint" />
            <mxPoint x="500" y="-170" as="targetPoint" />
          </mxGeometry>
        </mxCell>
        <mxCell id="axCD_BhFRmvyrdvlrib9-26" value="网页展示" style="rounded=0;whiteSpace=wrap;html=1;" vertex="1" parent="1">
          <mxGeometry x="430" y="-170" width="120" height="60" as="geometry" />
        </mxCell>
      </root>
    </mxGraphModel>
  </diagram>
</mxfile>
